<svg xmlns="http://www.w3.org/2000/svg" width="271.943" height="102.167" viewBox="0 0 271.943 102.167"><g transform="translate(-1182.5 -603.167)"><line x2="271.943" transform="translate(1182.5 615.778)" fill="none" stroke="#e5e5e5" stroke-width="1"/><line x2="271.943" transform="translate(1182.5 651.4)" fill="none" stroke="#e5e5e5" stroke-width="1"/><line x2="271.943" transform="translate(1182.5 687.022)" fill="none" stroke="#e5e5e5" stroke-width="1"/><line x2="271.943" transform="translate(1182.5 633.589)" fill="none" stroke="#e5e5e5" stroke-width="1"/><line x2="271.943" transform="translate(1182.5 669.211)" fill="none" stroke="#e5e5e5" stroke-width="1"/><line x2="271.943" transform="translate(1182.5 704.833)" fill="none" stroke="#e5e5e5" stroke-width="1"/><g transform="translate(1207.668 603)"><line x1="19.232" y1="23.208" transform="translate(124.761 41.454)" fill="none" stroke="#707070" stroke-width="1"/><line x2="25.472" y2="30.039" transform="translate(6.262 28.237)" fill="none" stroke="#707070" stroke-width="1"/><line x1="24.364" y2="24.031" transform="translate(31.734 34.244)" fill="none" stroke="#707070" stroke-width="1"/><line x1="29.902" y1="54.07" transform="translate(56.098 34.244)" fill="none" stroke="#707070" stroke-width="1"/><line x1="38.762" y2="46.861" transform="translate(86 41.454)" fill="none" stroke="#707070" stroke-width="1"/><line x1="68.258" y2="59.255" transform="translate(143.993 5.407)" fill="none" stroke="#707070" stroke-width="1"/><circle cx="6" cy="6" r="6" transform="translate(-0.28 22.167)" fill="#699c11"/><circle cx="6" cy="6" r="6" transform="translate(25.72 52.167)" fill="#fd6001"/><circle cx="6" cy="6" r="6" transform="translate(49.72 28.167)" fill="#699c11"/><circle cx="6" cy="6" r="6" transform="translate(80.72 80.167)" fill="#fd6001"/><circle cx="6" cy="6" r="6" transform="translate(119.72 36.167)" fill="#699c11"/><circle cx="6" cy="6" r="6" transform="translate(138.72 58.167)" fill="#fd6001"/><circle cx="6" cy="6" r="6" transform="translate(207.72 0.167)" fill="#699c11"/></g></g></svg>