<?xml version="1.0" encoding="utf-8"?>
<!-- Generator: Adobe Illustrator 24.1.2, SVG Export Plug-In . SVG Version: 6.00 Build 0)  -->
<svg version="1.1" id="Capa_1" xmlns="http://www.w3.org/2000/svg" xmlns:xlink="http://www.w3.org/1999/xlink" x="0px" y="0px"
	 viewBox="0 0 198 68" style="enable-background:new 0 0 198 68;" xml:space="preserve">
<style type="text/css">
	.st0{fill:none;}
	.st1{fill:#FFFFFF;}
	.st2{fill:#699C11;}
</style>
<g transform="translate(462 -286)">
	<rect x="-462" y="286" class="st0" width="198" height="68"/>
	<rect x="-421" y="290" class="st1" width="61" height="61"/>
	<path class="st1" d="M-349.6,316.7c0,0.1-0.1,0.2-0.2,0.2c0,0,0,0-0.1,0h-1.6c-0.1,0-0.2-0.1-0.2-0.2c0,0,0,0,0-0.1v-13.1
		c0-0.1,0.1-0.2,0.2-0.2c0,0,0,0,0.1,0h1.6c0.1,0,0.2,0.1,0.2,0.2c0,0,0,0,0,0.1V316.7z M-340.9,316.9c-0.1,0-0.1,0-0.2-0.1
		c0,0-0.1-0.1-0.1-0.2v-5.7c0.1-0.6-0.1-1.3-0.4-1.9c-0.3-0.4-0.8-0.6-1.3-0.6c-0.7-0.1-1.3,0.2-1.8,0.7c-0.4,0.5-0.6,1.2-0.6,1.9
		v5.6c0,0.2-0.1,0.2-0.2,0.2h-1.5c-0.1,0-0.1,0-0.2-0.1c0,0-0.1-0.1-0.1-0.2v-7.2c0-0.5,0-0.9,0-1.3c0-0.4,0-0.8,0-1
		c0-0.2,0.1-0.2,0.3-0.2h1.4c0.1,0,0.2,0,0.2,0.1l0,0.7c0.3-0.3,0.7-0.6,1.1-0.7c0.5-0.2,1-0.3,1.5-0.3c1-0.1,2,0.3,2.6,1
		c0.7,0.8,1,1.9,0.9,2.9v6c0,0.2-0.1,0.2-0.2,0.2H-340.9z M-332.8,319.7c-0.5,0-1,0-1.4-0.1c-0.5-0.1-0.9-0.2-1.4-0.4
		c-0.1,0-0.2-0.1-0.2-0.1c0,0-0.1-0.1-0.1-0.2l0.1-1.5c0-0.2,0.1-0.3,0.4-0.2c0.4,0.2,0.9,0.4,1.3,0.5c0.4,0.1,0.9,0.1,1.3,0.2
		c0.7,0,1.3-0.2,1.9-0.6c0.5-0.4,0.7-1,0.7-1.7c-0.3,0.3-0.7,0.6-1.1,0.8c-0.4,0.2-0.8,0.2-1.2,0.3c-0.6,0-1.1-0.1-1.7-0.3
		c-0.5-0.2-1-0.6-1.3-1c-0.4-0.4-0.7-0.9-0.9-1.5c-0.2-0.6-0.3-1.2-0.3-1.9c-0.1-1.4,0.3-2.8,1.1-3.9c0.8-0.9,1.9-1.3,3.1-1.3
		c0.2,0,0.5,0,0.7,0.1c0.2,0.1,0.5,0.1,0.7,0.2c0.2,0.1,0.4,0.2,0.6,0.3c0.2,0.1,0.3,0.3,0.5,0.4l0-0.6c0-0.1,0-0.1,0-0.2
		c0,0,0.1-0.1,0.2-0.1h1.4c0.1,0,0.2,0.1,0.2,0.3v7.4c0.1,1.4-0.3,2.7-1.2,3.8C-330.3,319.3-331.5,319.8-332.8,319.7z M-332.4,308.5
		c-0.7,0-1.3,0.3-1.7,0.8c-0.5,0.8-0.7,1.7-0.6,2.6c0,0.4,0.1,0.8,0.2,1.2c0.1,0.3,0.3,0.6,0.5,0.9c0.2,0.2,0.4,0.4,0.7,0.6
		c0.3,0.1,0.6,0.2,0.9,0.2c0.3,0,0.6-0.1,0.9-0.2c0.3-0.1,0.5-0.3,0.8-0.6c0.2-0.3,0.4-0.6,0.5-0.9c0.1-0.4,0.2-0.8,0.2-1.2
		c0.1-0.9-0.2-1.8-0.6-2.5C-331,308.8-331.7,308.4-332.4,308.5z M-317.7,312.4c0,0.1,0,0.2-0.1,0.2c0,0-0.1,0.1-0.2,0.1h-5.9
		c0,0.7,0.3,1.4,0.8,2c0.5,0.5,1.1,0.8,1.8,0.8c0.5,0,0.9-0.1,1.4-0.2c0.5-0.1,1-0.3,1.4-0.5c0.1,0,0.1,0,0.2,0c0,0.1,0,0.2,0,0.2
		v1.2c0,0.1,0,0.2-0.1,0.3c-0.1,0.1-0.1,0.1-0.2,0.2c-0.4,0.2-0.8,0.3-1.3,0.4c-0.5,0.1-1,0.1-1.5,0.1c-1.3,0.1-2.5-0.4-3.4-1.3
		c-0.8-1.1-1.2-2.5-1.1-3.9c0-0.6,0.1-1.3,0.3-1.9c0.2-0.6,0.4-1.2,0.8-1.7c0.3-0.5,0.8-0.9,1.3-1.2c0.6-0.3,1.2-0.5,1.9-0.5
		c0.6,0,1.3,0.1,1.9,0.4c0.5,0.3,0.9,0.6,1.3,1.1c0.3,0.5,0.6,1.1,0.7,1.6c0.1,0.7,0.2,1.3,0.2,2c0,0.1,0,0.2,0,0.3
		C-317.7,312.2-317.7,312.3-317.7,312.4z M-321.7,308.4c-0.3,0-0.6,0.1-0.9,0.2c-0.3,0.1-0.5,0.3-0.6,0.6c-0.2,0.2-0.3,0.5-0.4,0.8
		c-0.1,0.3-0.2,0.6-0.2,0.9h4.1c0-0.3,0-0.5-0.1-0.8c-0.1-0.3-0.2-0.6-0.4-0.8c-0.2-0.2-0.4-0.5-0.6-0.6
		C-321.1,308.5-321.4,308.4-321.7,308.4z M-309.3,316.9c-0.1,0-0.1,0-0.2-0.1c0,0-0.1-0.1-0.1-0.2v-5.7c0.1-0.7-0.1-1.3-0.4-1.9
		c-0.3-0.4-0.8-0.6-1.3-0.6c-0.7-0.1-1.3,0.2-1.8,0.7c-0.4,0.5-0.6,1.2-0.6,1.9v5.6c0,0.2-0.1,0.2-0.2,0.2h-1.5
		c-0.1,0-0.1,0-0.2-0.1c0,0-0.1-0.1-0.1-0.2v-7.2c0-0.5,0-0.9,0-1.3c0-0.4,0-0.8,0-1c0-0.2,0.1-0.2,0.3-0.2h1.4c0.1,0,0.2,0,0.2,0.1
		l0,0.7c0.3-0.3,0.7-0.6,1.1-0.7c0.5-0.2,1-0.3,1.5-0.3c1-0.1,2,0.3,2.6,1c0.7,0.8,1,1.9,0.9,2.9v6c0,0.2-0.1,0.2-0.2,0.2H-309.3z
		 M-303.8,305.1c-0.3,0-0.6-0.1-0.9-0.4c-0.2-0.2-0.4-0.5-0.4-0.9c0-0.3,0.1-0.7,0.4-0.9c0.2-0.2,0.5-0.4,0.9-0.4
		c0.3,0,0.7,0.1,0.9,0.4c0.2,0.2,0.4,0.6,0.4,0.9c0,0.3-0.1,0.6-0.4,0.9C-303.2,304.9-303.5,305.1-303.8,305.1z M-304.6,316.9
		c-0.1,0-0.2-0.1-0.2-0.2c0,0,0,0,0,0v-9.5c0-0.1,0-0.1,0.1-0.2c0,0,0.1-0.1,0.2-0.1h1.5c0.1,0,0.1,0,0.2,0.1c0,0,0.1,0.1,0.1,0.2
		v9.5c0,0.1-0.1,0.2-0.2,0.2c0,0,0,0,0,0L-304.6,316.9z M-292.7,312.4c0,0.1,0,0.2-0.1,0.2c0,0-0.1,0.1-0.2,0.1h-5.9
		c0,0.7,0.3,1.4,0.8,2c0.5,0.5,1.1,0.8,1.8,0.8c0.5,0,0.9-0.1,1.4-0.2c0.5-0.1,1-0.3,1.4-0.5c0.1,0,0.1,0,0.2,0c0,0.1,0,0.2,0,0.2
		v1.2c0,0.1,0,0.2-0.1,0.3c-0.1,0.1-0.1,0.1-0.2,0.2c-0.4,0.2-0.8,0.3-1.3,0.4c-0.5,0.1-1,0.1-1.5,0.1c-1.3,0.1-2.5-0.4-3.4-1.3
		c-0.8-1.1-1.2-2.5-1.1-3.9c0-0.6,0.1-1.3,0.3-1.9c0.2-0.6,0.4-1.2,0.8-1.7c0.3-0.5,0.8-0.9,1.3-1.2c0.6-0.3,1.2-0.5,1.9-0.5
		c0.6,0,1.3,0.1,1.9,0.4c0.5,0.3,0.9,0.6,1.3,1.1c0.3,0.5,0.6,1.1,0.7,1.6c0.1,0.7,0.2,1.3,0.2,2c0,0.1,0,0.2,0,0.3
		C-292.7,312.2-292.7,312.3-292.7,312.4z M-296.6,308.4c-0.3,0-0.6,0.1-0.9,0.2c-0.3,0.1-0.5,0.3-0.6,0.6c-0.2,0.2-0.3,0.5-0.4,0.8
		c-0.1,0.3-0.2,0.6-0.2,0.9h4.1c0-0.3,0-0.5-0.1-0.8c-0.1-0.3-0.2-0.6-0.4-0.8c-0.2-0.2-0.4-0.5-0.6-0.6
		C-296,308.5-296.3,308.4-296.6,308.4z M-285.6,308.7c-0.2-0.1-0.4-0.1-0.6-0.1c-0.2,0-0.3,0-0.5,0c-0.3,0.1-0.6,0.2-0.9,0.5
		c-0.2,0.2-0.4,0.5-0.5,0.8c-0.1,0.3-0.2,0.7-0.2,1c0,0.4-0.1,0.7-0.1,1v4.7c0,0.2-0.1,0.3-0.2,0.3h-1.5c-0.1,0-0.2-0.1-0.2-0.3
		v-7.3c0-0.4,0-0.8,0-1.2c0-0.4,0-0.7,0-1c0-0.1,0-0.2,0.1-0.2c0.1,0,0.1-0.1,0.2,0h1.5c0.1,0,0.1,0,0.1,0c0,0,0,0.1,0,0.1v0.8
		c0.1-0.2,0.2-0.3,0.3-0.4c0.1-0.1,0.3-0.3,0.5-0.4c0.2-0.1,0.3-0.2,0.5-0.3c0.1-0.1,0.3-0.1,0.5-0.1c0.2,0,0.4,0,0.6,0
		c0.2,0,0.4,0.1,0.6,0.2c0.1,0,0.1,0.1,0.1,0.1c0,0.1,0,0.1,0,0.2v1.4c0,0.1,0,0.1-0.1,0.2C-285.5,308.8-285.5,308.8-285.6,308.7
		L-285.6,308.7z M-282.5,316.9c-0.1,0-0.2-0.1-0.2-0.2c0,0,0,0,0-0.1v-9.5c0-0.1,0.1-0.2,0.2-0.2c0,0,0,0,0.1,0h1.5
		c0.1,0,0.2,0.1,0.2,0.2c0,0,0,0,0,0.1v9.5c0,0.1-0.1,0.2-0.2,0.2c0,0,0,0-0.1,0L-282.5,316.9z M-282.6,305.7c0-0.1,0-0.1,0.1-0.2
		l1.2-1.7c0.1-0.1,0.1-0.1,0.2-0.2c0.1,0,0.2-0.1,0.2-0.1h1.7c0.1,0,0.2,0,0.2,0.1c0,0.1,0,0.1-0.1,0.1l-1.5,1.7
		c-0.1,0.1-0.1,0.1-0.2,0.2c-0.1,0-0.1,0.1-0.2,0.1h-1.5C-282.6,305.8-282.6,305.8-282.6,305.7L-282.6,305.7z M-271,316.9
		c-0.1,0-0.1,0-0.2,0c0,0,0-0.1,0-0.1v-0.8c-0.3,0.4-0.7,0.7-1.1,0.9c-0.4,0.2-0.9,0.3-1.4,0.3c-0.5,0-0.9-0.1-1.4-0.2
		c-0.4-0.1-0.7-0.3-1.1-0.6c-0.3-0.3-0.5-0.6-0.7-1c-0.2-0.4-0.3-0.9-0.3-1.4c0-0.6,0.1-1.1,0.3-1.6c0.2-0.5,0.6-0.9,1-1.2
		c0.5-0.3,1.1-0.6,1.8-0.7c0.9-0.2,1.7-0.2,2.6-0.2c0-0.2,0-0.5-0.1-0.7c0-0.2-0.1-0.4-0.2-0.6c-0.1-0.2-0.3-0.3-0.5-0.4
		c-0.2-0.1-0.5-0.2-0.8-0.2c-0.5,0-1,0.1-1.5,0.2c-0.4,0.1-0.8,0.3-1.2,0.6c-0.1,0.1-0.2,0.1-0.4,0.2c-0.1,0-0.1-0.1-0.1-0.2v-1.4
		c0-0.1,0-0.1,0-0.2c0,0,0-0.1,0-0.1c0.1-0.1,0.2-0.1,0.3-0.2c0.4-0.2,0.8-0.4,1.3-0.5c0.5-0.1,1.1-0.2,1.6-0.2
		c1-0.1,1.9,0.2,2.7,0.9c0.6,0.8,1,1.8,0.9,2.8v4.3c0,0.3,0,0.7,0,1.1c0,0.3,0,0.6,0.1,1c0,0.2,0,0.3-0.2,0.3H-271z M-271.3,312.1
		c-1-0.1-2,0.1-2.9,0.5c-0.5,0.3-0.9,0.8-0.9,1.5c0,0.4,0.1,0.8,0.4,1c0.3,0.2,0.7,0.4,1.1,0.3c0.6,0,1.2-0.3,1.6-0.8
		c0.5-0.7,0.7-1.5,0.6-2.4L-271.3,312.1z M-348.3,338.3c-0.2,0.7-0.6,1.3-1.1,1.9c-0.5,0.4-1,0.6-1.6,0.5c-0.2,0-0.5,0-0.7,0
		c-0.2,0-0.4-0.1-0.5-0.1c-0.1,0-0.1-0.1-0.1-0.1c0,0-0.1-0.1,0-0.2l0.1-1.2c0-0.2,0.1-0.2,0.2-0.2c0.2,0,0.3,0.1,0.5,0.1
		c0.1,0,0.3,0,0.4,0c0.2,0,0.3,0,0.5-0.1c0.1-0.1,0.2-0.1,0.3-0.2l0.2-0.3c0.1-0.1,0.1-0.3,0.2-0.4c0.1-0.2,0.1-0.3,0.2-0.5
		c0.1-0.2,0.1-0.4,0.2-0.5l-3.1-8.8c-0.1-0.1,0-0.2,0.1-0.2h1.7c0.1,0,0.2,0,0.2,0.1l2,6l2-6c0-0.1,0.1-0.1,0.2-0.1h1.7
		c0.2,0,0.2,0.1,0.1,0.2L-348.3,338.3z M-327.4,337.5c-0.3,0.1-0.5,0.2-0.8,0.3c-0.3,0.1-0.7,0.1-1,0.2s-0.7,0.1-1.1,0.1
		c-0.4,0-0.7,0-1.1,0c-0.9,0-1.9-0.1-2.8-0.5c-0.8-0.3-1.6-0.8-2.2-1.4c-0.6-0.6-1.1-1.4-1.4-2.2c-0.4-1-0.5-2-0.5-3
		c0-1,0.2-1.9,0.5-2.8c0.3-0.8,0.8-1.6,1.4-2.2c0.6-0.6,1.4-1.1,2.2-1.5c0.9-0.4,1.9-0.5,2.9-0.5c0.6,0,1.3,0,1.9,0.1
		c0.5,0.1,1.1,0.2,1.6,0.4c0.1,0,0.2,0.1,0.2,0.1c0,0,0,0.1,0,0.1l-0.2,1.5c0,0.1,0,0.1-0.1,0.2c0,0-0.1,0-0.3,0
		c-1-0.3-2.1-0.5-3.2-0.5c-0.7,0-1.3,0.1-2,0.4c-0.6,0.2-1.1,0.6-1.5,1c-0.4,0.5-0.8,1-1,1.6c-0.2,0.7-0.4,1.4-0.4,2.1
		c0,0.7,0.1,1.5,0.4,2.2c0.2,0.6,0.5,1.2,1,1.6c0.4,0.4,0.9,0.8,1.5,1c0.6,0.2,1.3,0.3,1.9,0.3c0.5,0,0.9,0,1.4-0.1
		c0.3,0,0.6-0.1,0.9-0.2v-3.6h-3c-0.1,0-0.1,0-0.2-0.1c0,0-0.1-0.1-0.1-0.2v-1.4c0-0.1,0-0.1,0.1-0.2c0,0,0.1-0.1,0.2-0.1h4.6
		c0.2,0,0.3,0,0.3,0.1c0.1,0.1,0.1,0.2,0.1,0.4v5.9c0,0.1,0,0.3-0.1,0.4C-327.2,337.3-327.3,337.4-327.4,337.5z M-316.2,333.4
		c0,0.1,0,0.2-0.1,0.2c0,0-0.1,0.1-0.2,0.1h-5.9c0,0.7,0.3,1.4,0.8,2c0.5,0.5,1.1,0.8,1.8,0.8c0.5,0,0.9-0.1,1.4-0.2
		c0.5-0.1,1-0.3,1.4-0.5c0.1,0,0.1,0,0.2,0c0,0.1,0,0.2,0,0.2v1.2c0,0.1,0,0.2-0.1,0.3c-0.1,0.1-0.1,0.1-0.2,0.2
		c-0.4,0.2-0.8,0.3-1.3,0.4c-0.5,0.1-1,0.1-1.5,0.1c-1.3,0.1-2.5-0.4-3.4-1.3c-0.8-1.1-1.2-2.5-1.1-3.9c0-0.6,0.1-1.3,0.3-1.9
		c0.2-0.6,0.4-1.2,0.8-1.7c0.3-0.5,0.8-0.9,1.3-1.2c0.6-0.3,1.2-0.5,1.9-0.5c0.6,0,1.3,0.1,1.9,0.4c0.5,0.3,0.9,0.6,1.3,1.1
		c0.3,0.5,0.6,1.1,0.7,1.6c0.1,0.7,0.2,1.3,0.2,2c0,0.1,0,0.2,0,0.3C-316.2,333.2-316.2,333.3-316.2,333.4L-316.2,333.4z
		 M-320.1,329.4c-0.3,0-0.6,0.1-0.9,0.2c-0.3,0.1-0.5,0.3-0.6,0.6c-0.2,0.2-0.3,0.5-0.4,0.8c-0.1,0.3-0.2,0.6-0.2,0.9h4.1
		c0-0.3,0-0.5-0.1-0.8c-0.1-0.3-0.2-0.6-0.4-0.8c-0.2-0.2-0.4-0.5-0.6-0.6C-319.5,329.5-319.8,329.4-320.1,329.4z M-309.5,337.5
		c-0.7,0.4-1.5,0.7-2.3,0.6c-0.2,0-0.5,0-0.8,0c-0.3,0-0.5-0.1-0.8-0.1c-0.2,0-0.5-0.1-0.7-0.1c-0.2,0-0.3-0.1-0.5-0.1
		c-0.1,0-0.1-0.1-0.2-0.1c-0.1-0.1-0.1-0.1-0.1-0.2l0.1-1.2c0-0.1,0-0.1,0.1-0.2c0,0,0.1,0,0.2,0c0.4,0.1,0.8,0.2,1.2,0.3
		c0.4,0.1,0.8,0.1,1.1,0.1c0.4,0,0.9-0.1,1.2-0.4c0.2-0.2,0.4-0.6,0.4-0.9c0-0.2-0.1-0.4-0.2-0.6c-0.2-0.2-0.4-0.4-0.7-0.6
		c-0.3-0.2-0.7-0.4-1-0.6l-1-0.6c-0.4-0.2-0.7-0.5-1-0.9c-0.3-0.4-0.4-0.8-0.4-1.3c0-0.4,0.1-0.9,0.3-1.3c0.2-0.4,0.4-0.7,0.7-0.9
		c0.3-0.2,0.7-0.4,1-0.5c0.4-0.1,0.8-0.2,1.2-0.2c0.2,0,0.5,0,0.7,0c0.2,0,0.5,0.1,0.7,0.1c0.2,0,0.4,0.1,0.6,0.1
		c0.1,0,0.3,0.1,0.4,0.2c0.1,0,0.1,0.1,0.1,0.1c0,0,0,0.1,0,0.1l-0.1,1.2c0,0.1,0,0.2-0.1,0.2c-0.1,0-0.2,0-0.3,0
		c-0.3-0.1-0.5-0.2-0.8-0.2c-0.2,0-0.3,0-0.5-0.1c-0.2,0-0.5,0-0.7,0c-0.4,0-0.8,0.1-1,0.3c-0.2,0.2-0.3,0.5-0.3,0.8
		c0,0.2,0.1,0.5,0.3,0.6c0.3,0.2,0.5,0.4,0.9,0.6c0.4,0.2,0.7,0.4,1,0.6c0.2,0.1,0.5,0.3,0.7,0.5c0.4,0.3,0.7,0.6,1,1
		c0.2,0.4,0.3,0.9,0.3,1.3C-308.3,336.1-308.8,337-309.5,337.5L-309.5,337.5z M-301.4,337.7c-0.2,0.1-0.5,0.2-0.8,0.3
		c-0.4,0.1-0.8,0.1-1.2,0.1c-0.8,0.1-1.5-0.4-1.9-1c-0.2-0.3-0.3-0.7-0.3-1.1c0-0.4-0.1-1-0.1-1.7v-4.5h-1.5c-0.1,0-0.2-0.1-0.2-0.2
		c0,0,0,0,0,0v-1.4c0-0.1,0.1-0.2,0.2-0.2c0,0,0,0,0,0h1.5v-2.5c0-0.1,0-0.1,0.1-0.2c0,0,0.1-0.1,0.2-0.1h1.5c0.1,0,0.1,0,0.2,0.1
		c0,0,0.1,0.1,0.1,0.2v2.5h1.7c0.1,0,0.2,0.1,0.2,0.2c0,0,0,0,0,0v1.4c0,0.1-0.1,0.2-0.2,0.2c0,0,0,0,0,0h-1.7v4.6
		c0,0.5,0,1,0.1,1.5c0,0.2,0.2,0.3,0.3,0.4c0.2,0,0.4,0.1,0.6,0c0.2,0,0.3-0.1,0.5-0.1c0.2,0,0.3-0.1,0.5-0.2c0.1,0,0.1,0,0.1,0
		c0,0,0.1,0.1,0.1,0.2l0.1,1.2C-301.3,337.6-301.3,337.7-301.4,337.7L-301.4,337.7z M-299,326.1c-0.7,0-1.2-0.5-1.2-1.2c0,0,0,0,0,0
		c0-0.3,0.1-0.7,0.4-0.9c0.2-0.2,0.5-0.4,0.9-0.4c0.3,0,0.7,0.1,0.9,0.4c0.2,0.2,0.4,0.6,0.4,0.9c0,0.3-0.1,0.6-0.4,0.9
		C-298.4,325.9-298.7,326.1-299,326.1z M-299.8,337.9c-0.1,0-0.2-0.1-0.2-0.2c0,0,0,0,0,0v-9.5c0-0.1,0.1-0.2,0.2-0.2c0,0,0,0,0,0
		h1.5c0.1,0,0.2,0.1,0.2,0.2c0,0,0,0,0,0v9.5c0,0.1-0.1,0.2-0.2,0.2c0,0,0,0,0,0L-299.8,337.9z M-287.8,336.5
		c-0.4,0.5-0.9,0.9-1.5,1.2c-1.3,0.6-2.8,0.6-4.1,0c-0.6-0.3-1.1-0.7-1.5-1.1c-0.4-0.5-0.7-1.1-0.9-1.7c-0.4-1.3-0.4-2.7,0-4.1
		c0.2-0.6,0.5-1.2,0.9-1.7c0.4-0.5,0.9-0.9,1.5-1.1c1.3-0.6,2.8-0.6,4.1,0c0.6,0.3,1.1,0.6,1.5,1.1c0.4,0.5,0.7,1.1,0.9,1.7
		c0.2,0.7,0.3,1.3,0.3,2c0,0.7-0.1,1.4-0.3,2C-287.1,335.5-287.4,336-287.8,336.5L-287.8,336.5z M-291.3,329.4
		c-0.4,0-0.8,0.1-1.2,0.3c-0.3,0.2-0.6,0.5-0.8,0.8c-0.2,0.3-0.4,0.7-0.5,1.1c-0.2,0.8-0.2,1.7,0,2.5c0.1,0.4,0.3,0.8,0.5,1.1
		c0.2,0.3,0.5,0.6,0.8,0.8c0.8,0.4,1.7,0.4,2.4,0c0.3-0.2,0.6-0.5,0.8-0.8c0.2-0.3,0.4-0.7,0.5-1.1c0.1-0.4,0.2-0.8,0.2-1.3
		c0-0.4-0.1-0.8-0.2-1.2c-0.1-0.4-0.3-0.8-0.5-1.1c-0.2-0.3-0.5-0.6-0.8-0.8C-290.5,329.5-290.9,329.4-291.3,329.4z M-292.3,326.7
		c0-0.1,0-0.1,0.1-0.2l1.2-1.7c0.1-0.1,0.1-0.1,0.2-0.2c0.1,0,0.2-0.1,0.2-0.1h1.7c0.1,0,0.2,0,0.2,0.1c0,0.1,0,0.1-0.1,0.1
		l-1.5,1.7c-0.1,0.1-0.1,0.1-0.2,0.2c-0.1,0-0.1,0.1-0.2,0.1h-1.5C-292.2,326.8-292.3,326.8-292.3,326.7z M-278,337.9
		c-0.1,0-0.1,0-0.2-0.1c0,0-0.1-0.1-0.1-0.2v-5.7c0.1-0.6-0.1-1.3-0.4-1.9c-0.3-0.4-0.8-0.6-1.3-0.6c-0.7-0.1-1.3,0.2-1.8,0.7
		c-0.4,0.5-0.6,1.2-0.6,1.9v5.6c0,0.2-0.1,0.2-0.2,0.2h-1.5c-0.1,0-0.1,0-0.2-0.1c0,0-0.1-0.1-0.1-0.2v-7.2c0-0.5,0-0.9,0-1.3
		c0-0.4,0-0.8,0-1c0-0.2,0.1-0.2,0.3-0.2h1.4c0.1,0,0.2,0,0.2,0.1l0,0.7c0.3-0.3,0.7-0.6,1.1-0.7c0.5-0.2,1-0.3,1.5-0.3
		c1-0.1,2,0.3,2.6,1c0.7,0.8,1,1.9,0.9,2.9v6c0,0.2-0.1,0.2-0.2,0.2H-278z"/>
	<rect x="-440" y="305" class="st1" width="14" height="46"/>
	<rect x="-459" y="321" class="st1" width="14" height="30"/>
</g>
<path class="st2" d="M71.3,45.5c-0.2,0-0.3,0-0.3-0.1c0-0.1-0.1-0.2-0.1-0.3V28.9l-6.5,16.2c0,0.1-0.1,0.1-0.1,0.2
	c-0.1,0-0.2,0-0.4,0h-2.4c-0.1,0-0.3,0-0.4,0c-0.1,0-0.1-0.1-0.1-0.2l-6.5-16.2v16.3c0,0.1,0,0.2-0.1,0.3c0,0.1-0.1,0.1-0.3,0.1
	h-2.8c-0.2,0-0.4-0.1-0.4-0.3V23.5c0-0.2,0-0.4,0.1-0.5c0.1-0.1,0.3-0.1,0.6-0.1h3.6c0.1,0,0.2,0,0.3,0.1c0.1,0.1,0.1,0.2,0.1,0.3
	l7.1,17.7l7.1-17.7c0-0.1,0.1-0.2,0.1-0.3c0-0.1,0.1-0.1,0.3-0.1h3.6c0.3,0,0.5,0,0.6,0.1c0.1,0.2,0.1,0.3,0.1,0.5v21.7
	c0,0.2-0.1,0.3-0.4,0.3H71.3z M78.5,45.5c-0.2,0-0.4-0.2-0.4-0.4c0,0,0,0,0,0V43c0-0.1,0-0.2,0.1-0.3c0-0.1,0.1-0.2,0.1-0.3l10-16.4
	h-9.6c-0.2,0-0.4-0.1-0.4-0.3c0,0,0-0.1,0-0.1v-2.4c0-0.1,0-0.2,0.1-0.3c0.1-0.1,0.2-0.1,0.3-0.1h13.3c0.1,0,0.2,0,0.3,0.1
	c0.1,0.1,0.1,0.2,0.1,0.3v2.1c0,0.1,0,0.2-0.1,0.2c-0.1,0.1-0.1,0.2-0.1,0.2l-10,16.5h10.3c0.2,0,0.4,0.1,0.4,0.4v2.4
	c0,0.2-0.2,0.4-0.4,0.4c0,0,0,0,0,0H78.5z"/>
</svg>
