<svg xmlns="http://www.w3.org/2000/svg" width="198" height="68" viewBox="0 0 198 68"><defs><style>.a{fill:none;}.b{fill:#699c11;}.c{fill:#fff;}.d{fill:#111426;}.e{fill:#ffa901;}.f{fill:#fd6001;}</style></defs><g transform="translate(462 -286)"><rect class="a" width="198" height="68" transform="translate(-462 286)"/><rect class="b" width="61" height="61" transform="translate(-421 290)"/><path class="c" d="M23.01,1.5q-.24,0-.3-.075a.416.416,0,0,1-.06-.255v-16.3L16.14,1.11a.3.3,0,0,1-.135.18,1.357,1.357,0,0,1-.375.03h-2.4a1.357,1.357,0,0,1-.375-.03.3.3,0,0,1-.135-.18L6.21-15.135V1.17a.416.416,0,0,1-.06.255q-.06.075-.3.075H3.06q-.36,0-.36-.33V-20.49a.943.943,0,0,1,.09-.525q.09-.1.57-.105H6.93q.21,0,.255.075a2.75,2.75,0,0,1,.135.285L14.43-3.105,21.54-20.76a2.75,2.75,0,0,1,.135-.285q.045-.075.255-.075H25.5q.48,0,.57.105a.943.943,0,0,1,.09.525V1.17q0,.33-.36.33Zm7.2,0a.358.358,0,0,1-.36-.359V-.951a.61.61,0,0,1,.075-.269q.075-.149.135-.3L40.08-17.97H30.51a.345.345,0,0,1-.39-.39v-2.4a.327.327,0,0,1,.12-.255.4.4,0,0,1,.27-.105H43.86a.4.4,0,0,1,.27.1.325.325,0,0,1,.12.254v2.15a.825.825,0,0,1-.075.24q-.075.18-.105.24L34.02-1.65H44.31q.36,0,.36.39v2.4a.359.359,0,0,1-.36.36Z" transform="translate(-413.7 330)"/><path class="d" d="M3.384.666A.207.207,0,0,1,3.15.9H1.512A.207.207,0,0,1,1.278.666v-13.1a.207.207,0,0,1,.234-.234H3.15a.207.207,0,0,1,.234.234ZM12.1.882A.188.188,0,0,1,11.943.8.274.274,0,0,1,11.88.63V-5.094a3.332,3.332,0,0,0-.4-1.872,1.444,1.444,0,0,0-1.269-.576,2.2,2.2,0,0,0-1.755.657,2.826,2.826,0,0,0-.567,1.9V.648q0,.234-.216.234H6.174A.188.188,0,0,1,6.021.8.274.274,0,0,1,5.958.63V-6.534q0-.684-.009-1.314T5.9-8.838q-.036-.234.252-.234H7.578q.2,0,.162.146l-.018.655A4.184,4.184,0,0,1,8.8-9.015a3.275,3.275,0,0,1,1.458-.309A3.353,3.353,0,0,1,12.9-8.307a4.278,4.278,0,0,1,.909,2.943V.648q0,.234-.216.234ZM20.178,3.69a10.171,10.171,0,0,1-1.422-.1A6.711,6.711,0,0,1,17.37,3.24a1.494,1.494,0,0,1-.225-.144.226.226,0,0,1-.063-.18l.09-1.458q.036-.342.36-.18a5.56,5.56,0,0,0,1.323.459A6.387,6.387,0,0,0,20.2,1.89a2.713,2.713,0,0,0,1.863-.612A2.283,2.283,0,0,0,22.806-.4a3,3,0,0,1-1.1.756,3.328,3.328,0,0,1-1.242.252A4.005,4.005,0,0,1,18.792.261,3.979,3.979,0,0,1,17.46-.711,4.5,4.5,0,0,1,16.587-2.2a5.479,5.479,0,0,1-.315-1.89,6.053,6.053,0,0,1,1.071-3.942,3.78,3.78,0,0,1,3.069-1.278,3.068,3.068,0,0,1,.729.09,4.7,4.7,0,0,1,.711.234,3.912,3.912,0,0,1,.63.333,3.165,3.165,0,0,1,.5.4l-.018-.63a.313.313,0,0,1,.018-.2q.036-.054.216-.054h1.422q.216,0,.216.27v7.434a5.5,5.5,0,0,1-1.188,3.771A4.4,4.4,0,0,1,20.178,3.69Zm.45-11.232a2.017,2.017,0,0,0-1.737.828,4.518,4.518,0,0,0-.6,2.628,3.861,3.861,0,0,0,.18,1.224,2.694,2.694,0,0,0,.495.909,2.233,2.233,0,0,0,.72.567,1.922,1.922,0,0,0,.855.2,2.219,2.219,0,0,0,.936-.2,2.191,2.191,0,0,0,.756-.576,2.83,2.83,0,0,0,.513-.918,3.752,3.752,0,0,0,.189-1.242,4.437,4.437,0,0,0-.612-2.529A1.942,1.942,0,0,0,20.628-7.542ZM35.262-3.636a.274.274,0,0,1-.081.216.255.255,0,0,1-.171.072H29.088a3.282,3.282,0,0,0,.756,1.971,2.286,2.286,0,0,0,1.818.765,6.886,6.886,0,0,0,1.35-.153A4.348,4.348,0,0,0,34.4-1.3q.126-.072.162.018a.639.639,0,0,1,.036.234V.2a.491.491,0,0,1-.054.252.568.568,0,0,1-.216.18,4.207,4.207,0,0,1-1.269.414,8.7,8.7,0,0,1-1.485.126A4.188,4.188,0,0,1,28.2-.171,5.915,5.915,0,0,1,27.054-4.1a7.307,7.307,0,0,1,.252-1.908,5.336,5.336,0,0,1,.765-1.674,3.935,3.935,0,0,1,1.305-1.188,3.727,3.727,0,0,1,1.872-.45,3.868,3.868,0,0,1,1.863.414,3.557,3.557,0,0,1,1.251,1.116,4.7,4.7,0,0,1,.7,1.638,8.868,8.868,0,0,1,.216,2q0,.126-.009.288T35.262-3.636ZM31.32-7.6a1.71,1.71,0,0,0-.864.216,2.224,2.224,0,0,0-.648.558,2.971,2.971,0,0,0-.441.792,4.557,4.557,0,0,0-.243.9h4.122a3.05,3.05,0,0,0-.117-.792,2.9,2.9,0,0,0-.351-.8,2.169,2.169,0,0,0-.594-.621A1.468,1.468,0,0,0,31.32-7.6ZM43.722.882A.188.188,0,0,1,43.569.8.274.274,0,0,1,43.506.63V-5.094A3.332,3.332,0,0,0,43.1-6.966a1.444,1.444,0,0,0-1.269-.576,2.2,2.2,0,0,0-1.755.657,2.826,2.826,0,0,0-.567,1.9V.648q0,.234-.216.234H37.8A.188.188,0,0,1,37.647.8.274.274,0,0,1,37.584.63V-6.534q0-.684-.009-1.314t-.045-.99q-.036-.234.252-.234H39.2q.2,0,.162.146l-.018.655a4.184,4.184,0,0,1,1.08-.744,3.275,3.275,0,0,1,1.458-.309,3.353,3.353,0,0,1,2.637,1.017,4.278,4.278,0,0,1,.909,2.943V.648q0,.234-.216.234Zm5.454-11.826A1.181,1.181,0,0,1,48.3-11.3a1.177,1.177,0,0,1-.351-.861,1.229,1.229,0,0,1,.351-.888,1.166,1.166,0,0,1,.873-.363,1.2,1.2,0,0,1,.882.363,1.213,1.213,0,0,1,.36.888,1.162,1.162,0,0,1-.36.861A1.211,1.211,0,0,1,49.176-10.944ZM48.4.918A.215.215,0,0,1,48.186.7V-8.766a.208.208,0,0,1,.063-.153.209.209,0,0,1,.153-.063h1.512a.209.209,0,0,1,.153.063.208.208,0,0,1,.063.153V.7a.215.215,0,0,1-.216.216ZM60.336-3.636a.274.274,0,0,1-.081.216.255.255,0,0,1-.171.072H54.162a3.282,3.282,0,0,0,.756,1.971,2.286,2.286,0,0,0,1.818.765,6.886,6.886,0,0,0,1.35-.153A4.348,4.348,0,0,0,59.472-1.3q.126-.072.162.018a.639.639,0,0,1,.036.234V.2a.491.491,0,0,1-.054.252A.568.568,0,0,1,59.4.63a4.207,4.207,0,0,1-1.269.414,8.7,8.7,0,0,1-1.485.126A4.188,4.188,0,0,1,53.271-.171,5.915,5.915,0,0,1,52.128-4.1a7.308,7.308,0,0,1,.252-1.908,5.336,5.336,0,0,1,.765-1.674A3.935,3.935,0,0,1,54.45-8.874a3.727,3.727,0,0,1,1.872-.45,3.868,3.868,0,0,1,1.863.414,3.557,3.557,0,0,1,1.251,1.116,4.7,4.7,0,0,1,.7,1.638,8.868,8.868,0,0,1,.216,2q0,.126-.009.288T60.336-3.636ZM56.394-7.6a1.71,1.71,0,0,0-.864.216,2.224,2.224,0,0,0-.648.558,2.971,2.971,0,0,0-.441.792,4.558,4.558,0,0,0-.243.9H58.32a3.05,3.05,0,0,0-.117-.792,2.9,2.9,0,0,0-.351-.8,2.169,2.169,0,0,0-.594-.621A1.468,1.468,0,0,0,56.394-7.6Zm10.962.342a4.49,4.49,0,0,0-.63-.117,1.7,1.7,0,0,0-.468.009,1.6,1.6,0,0,0-.873.459,2.345,2.345,0,0,0-.5.819,4.121,4.121,0,0,0-.225,1.008q-.054.54-.054,1.026V.63q0,.252-.216.252H62.892q-.2,0-.2-.27V-6.642q0-.576-.018-1.152T62.658-8.8q0-.162.054-.207a.283.283,0,0,1,.18-.045h1.494q.126,0,.144.036a.314.314,0,0,1,.018.127v.8a2.334,2.334,0,0,1,.333-.435,3.08,3.08,0,0,1,.45-.39,2.351,2.351,0,0,1,.5-.272,1.279,1.279,0,0,1,.468-.1q.342,0,.621.009a1.238,1.238,0,0,1,.585.189.162.162,0,0,1,.108.117.706.706,0,0,1,.018.153v1.35a.323.323,0,0,1-.054.162Q67.518-7.218,67.356-7.254ZM70.506.918A.191.191,0,0,1,70.29.7V-8.784A.191.191,0,0,1,70.506-9h1.512a.191.191,0,0,1,.216.216V.7a.191.191,0,0,1-.216.216Zm-.126-11.2a.288.288,0,0,1,.072-.18l1.206-1.71a1.648,1.648,0,0,1,.207-.207.392.392,0,0,1,.243-.063h1.728q.2,0,.2.126a.207.207,0,0,1-.072.144l-1.494,1.746a2.353,2.353,0,0,1-.2.207.32.32,0,0,1-.216.063H70.542Q70.38-10.152,70.38-10.278ZM82.044.882a.31.31,0,0,1-.162-.027Q81.846.828,81.846.72V-.09A2.816,2.816,0,0,1,80.7.855a3.344,3.344,0,0,1-1.4.315,4.454,4.454,0,0,1-1.359-.2A2.871,2.871,0,0,1,76.887.378,2.77,2.77,0,0,1,76.194-.6a3.411,3.411,0,0,1-.252-1.359,3.767,3.767,0,0,1,.324-1.611,2.789,2.789,0,0,1,1.017-1.152,5.068,5.068,0,0,1,1.773-.684,13,13,0,0,1,2.61-.225,3.312,3.312,0,0,0-.072-.684,1.842,1.842,0,0,0-.243-.612,1.3,1.3,0,0,0-.477-.441,1.572,1.572,0,0,0-.774-.171,4.681,4.681,0,0,0-1.467.216A5.641,5.641,0,0,0,77.4-6.75a.747.747,0,0,1-.387.162q-.1-.018-.1-.2V-8.154a1.388,1.388,0,0,0-.009-.153.2.2,0,0,1,.027-.135,1.017,1.017,0,0,1,.27-.2,8.262,8.262,0,0,1,1.251-.5,5.535,5.535,0,0,1,1.611-.2,3.643,3.643,0,0,1,2.691.882,3.811,3.811,0,0,1,.873,2.772v4.266q0,.5.009,1.053A8.634,8.634,0,0,0,83.7.594q.036.288-.2.288ZM81.72-3.924a6.187,6.187,0,0,0-2.862.486,1.573,1.573,0,0,0-.864,1.458,1.282,1.282,0,0,0,.4,1.026,1.569,1.569,0,0,0,1.062.342A2.025,2.025,0,0,0,81.1-1.368a3.682,3.682,0,0,0,.621-2.358ZM4.7,22.278a4.338,4.338,0,0,1-1.1,1.854,2.4,2.4,0,0,1-1.62.54,6.2,6.2,0,0,1-.684-.036,1.606,1.606,0,0,1-.54-.144.363.363,0,0,1-.144-.1.2.2,0,0,1-.036-.171l.108-1.188q0-.234.2-.162a3.542,3.542,0,0,0,.5.1A3.788,3.788,0,0,0,1.818,23a1.1,1.1,0,0,0,.486-.089.8.8,0,0,0,.288-.233l.153-.3q.1-.2.207-.438t.207-.519q.1-.277.171-.545L.252,12.126Q.162,11.91.4,11.91H2.07q.18,0,.216.09l2,5.971L6.318,12q.036-.09.216-.09H8.208q.234,0,.144.216Zm20.9-.792a3.9,3.9,0,0,1-.792.279q-.468.117-1.017.207t-1.116.135q-.567.045-1.071.045a7.926,7.926,0,0,1-2.763-.468,6.091,6.091,0,0,1-2.187-1.368A6.32,6.32,0,0,1,15.21,18.1a8.041,8.041,0,0,1-.522-2.988,7.913,7.913,0,0,1,.486-2.817,6.455,6.455,0,0,1,1.386-2.223,6.264,6.264,0,0,1,2.178-1.458,7.557,7.557,0,0,1,2.88-.522,14.181,14.181,0,0,1,1.926.117,10.082,10.082,0,0,1,1.6.351q.2.054.234.117a.176.176,0,0,1,.018.135l-.216,1.53a.259.259,0,0,1-.09.18q-.072.054-.27-.018A9.931,9.931,0,0,0,21.6,10a5.037,5.037,0,0,0-1.962.369,4.323,4.323,0,0,0-1.512,1.044,4.8,4.8,0,0,0-.981,1.611,5.908,5.908,0,0,0-.351,2.088,6.417,6.417,0,0,0,.351,2.205,4.494,4.494,0,0,0,.99,1.62,4.125,4.125,0,0,0,1.521.99,5.464,5.464,0,0,0,1.944.333A11.854,11.854,0,0,0,23,20.19a2.839,2.839,0,0,0,.882-.216V16.356h-2.97a.231.231,0,0,1-.171-.063.208.208,0,0,1-.063-.153V14.7a.231.231,0,0,1,.081-.18.255.255,0,0,1,.171-.072h4.608q.27,0,.342.09a.62.62,0,0,1,.072.36v5.94a.681.681,0,0,1-.108.414A.931.931,0,0,1,25.6,21.486Zm11.232-4.122a.274.274,0,0,1-.081.216.255.255,0,0,1-.171.072H30.654a3.282,3.282,0,0,0,.756,1.971,2.286,2.286,0,0,0,1.818.765,6.886,6.886,0,0,0,1.35-.153,4.348,4.348,0,0,0,1.386-.531q.126-.072.162.018a.639.639,0,0,1,.036.234V21.2a.491.491,0,0,1-.054.252.568.568,0,0,1-.216.18,4.207,4.207,0,0,1-1.269.414,8.7,8.7,0,0,1-1.485.126,4.188,4.188,0,0,1-3.375-1.341A5.915,5.915,0,0,1,28.62,16.9a7.307,7.307,0,0,1,.252-1.908,5.336,5.336,0,0,1,.765-1.674,3.935,3.935,0,0,1,1.305-1.188,3.727,3.727,0,0,1,1.872-.45,3.868,3.868,0,0,1,1.863.414,3.557,3.557,0,0,1,1.251,1.116,4.7,4.7,0,0,1,.7,1.638,8.868,8.868,0,0,1,.216,2q0,.126-.009.288T36.828,17.364ZM32.886,13.4a1.71,1.71,0,0,0-.864.216,2.224,2.224,0,0,0-.648.558,2.971,2.971,0,0,0-.441.792,4.557,4.557,0,0,0-.243.9h4.122a3.05,3.05,0,0,0-.117-.792,2.9,2.9,0,0,0-.351-.8,2.169,2.169,0,0,0-.594-.621A1.468,1.468,0,0,0,32.886,13.4Zm10.566,8.118a4.056,4.056,0,0,1-2.3.648q-.36,0-.756-.036t-.765-.09q-.369-.054-.657-.126a2.864,2.864,0,0,1-.45-.144.933.933,0,0,1-.153-.1.211.211,0,0,1-.063-.207l.108-1.17a.437.437,0,0,1,.054-.216q.036-.036.234.018a7.493,7.493,0,0,0,1.233.261,9.188,9.188,0,0,0,1.143.081,1.581,1.581,0,0,0,1.179-.4,1.274,1.274,0,0,0,.387-.918,1.053,1.053,0,0,0-.2-.585,2.3,2.3,0,0,0-.666-.6q-.486-.288-1.008-.585l-1.026-.585a3.025,3.025,0,0,1-.963-.909,2.171,2.171,0,0,1-.387-1.251,2.928,2.928,0,0,1,.27-1.3,2.724,2.724,0,0,1,.72-.918,2.893,2.893,0,0,1,1.035-.54,4.373,4.373,0,0,1,1.233-.171q.342,0,.711.036t.72.1a6.2,6.2,0,0,1,.63.144,1.742,1.742,0,0,1,.423.171q.09.054.1.1a.374.374,0,0,1-.009.135l-.108,1.152q-.018.2-.09.225a.594.594,0,0,1-.27-.009,7.541,7.541,0,0,0-.774-.234q-.252-.036-.531-.072a5.56,5.56,0,0,0-.693-.036,1.348,1.348,0,0,0-1.044.342,1.2,1.2,0,0,0-.306.828.894.894,0,0,0,.342.612,3.759,3.759,0,0,0,.864.594q.558.27,1.035.558a8.156,8.156,0,0,1,.711.468,3.435,3.435,0,0,1,.972,1.017,2.559,2.559,0,0,1,.324,1.323A2.811,2.811,0,0,1,43.452,21.522Zm8.136.216a2.785,2.785,0,0,1-.8.3,4.927,4.927,0,0,1-1.179.135,1.971,1.971,0,0,1-1.872-1.044,2.8,2.8,0,0,1-.306-1.1q-.054-.63-.054-1.71V13.8H45.882a.215.215,0,0,1-.216-.216V12.162a.215.215,0,0,1,.216-.216h1.494V9.426a.2.2,0,0,1,.072-.153.24.24,0,0,1,.162-.063h1.458a.231.231,0,0,1,.171.063.208.208,0,0,1,.063.153v2.52H51.03a.215.215,0,0,1,.216.216v1.422a.215.215,0,0,1-.216.216H49.3v4.644a12.889,12.889,0,0,0,.054,1.548.473.473,0,0,0,.342.4,1.687,1.687,0,0,0,.612.036q.234-.036.522-.1a2.963,2.963,0,0,0,.5-.153q.09-.036.126-.009a.354.354,0,0,1,.072.171l.144,1.188A.226.226,0,0,1,51.588,21.738ZM54,10.056a1.2,1.2,0,0,1-1.224-1.215,1.229,1.229,0,0,1,.351-.888A1.166,1.166,0,0,1,54,7.59a1.2,1.2,0,0,1,.882.363,1.213,1.213,0,0,1,.36.888,1.162,1.162,0,0,1-.36.861A1.211,1.211,0,0,1,54,10.056Zm-.774,11.862a.215.215,0,0,1-.216-.216V12.234a.215.215,0,0,1,.216-.216h1.512a.215.215,0,0,1,.216.216V21.7a.215.215,0,0,1-.216.216Zm12.024-1.4A4.317,4.317,0,0,1,63.7,21.747a5.174,5.174,0,0,1-4.077.009,4.216,4.216,0,0,1-1.467-1.134,4.877,4.877,0,0,1-.891-1.674,7.113,7.113,0,0,1,0-4.068,4.781,4.781,0,0,1,.891-1.665,4.265,4.265,0,0,1,1.467-1.125,5.226,5.226,0,0,1,4.077,0,4.243,4.243,0,0,1,1.476,1.125,4.781,4.781,0,0,1,.891,1.665,6.806,6.806,0,0,1,.3,2.034,6.644,6.644,0,0,1-.288,2A4.946,4.946,0,0,1,65.25,20.514ZM61.668,13.44a2.328,2.328,0,0,0-1.215.306,2.545,2.545,0,0,0-.837.8,3.749,3.749,0,0,0-.486,1.116,4.911,4.911,0,0,0,0,2.5,3.872,3.872,0,0,0,.486,1.125,2.512,2.512,0,0,0,.837.81,2.565,2.565,0,0,0,2.43,0,2.512,2.512,0,0,0,.837-.81,3.872,3.872,0,0,0,.486-1.125,4.937,4.937,0,0,0,.162-1.251,4.869,4.869,0,0,0-.162-1.233,3.749,3.749,0,0,0-.486-1.116,2.634,2.634,0,0,0-.837-.81A2.276,2.276,0,0,0,61.668,13.44Zm-.954-2.718a.288.288,0,0,1,.072-.18l1.206-1.71a1.648,1.648,0,0,1,.207-.207.392.392,0,0,1,.243-.063H64.17q.2,0,.2.126a.207.207,0,0,1-.072.144L62.8,10.578a2.352,2.352,0,0,1-.2.207.32.32,0,0,1-.216.063H60.876Q60.714,10.848,60.714,10.722Zm14.292,11.16a.188.188,0,0,1-.153-.081.274.274,0,0,1-.063-.171V15.906a3.332,3.332,0,0,0-.4-1.872,1.444,1.444,0,0,0-1.269-.576,2.2,2.2,0,0,0-1.755.657,2.826,2.826,0,0,0-.567,1.9v5.634q0,.234-.216.234H69.084a.188.188,0,0,1-.153-.081.274.274,0,0,1-.063-.171V14.466q0-.684-.009-1.314t-.045-.99q-.036-.234.252-.234h1.422q.2,0,.162.146l-.018.655a4.184,4.184,0,0,1,1.08-.744,3.275,3.275,0,0,1,1.458-.309,3.353,3.353,0,0,1,2.637,1.017,4.278,4.278,0,0,1,.909,2.943v6.012q0,.234-.216.234Z" transform="translate(-353 316)"/><rect class="e" width="14" height="46" transform="translate(-440 305)"/><rect class="f" width="14" height="30" transform="translate(-459 321)"/></g></svg>